# xmcd
# 
# Track frame offsets:
#     150
#     25874
#     47775
#     79784
#     83386
#     108736
#     148062
#     173911
#     221486
#     235317
#     273527
# 
# Disc length: 4125
# 
# Revision: 1
# Processed by: cddbd v1.5.2PL0 Copyright (c) Steve Scherf et al.
# Submitted via: fre:ac v1.0.17
# 
DISCID=95101b0b
DTITLE=Sleep - Holy Mountain [Earache 2009 Reissue]
DYEAR=1993
DGENRE=Doom Metal
TTITLE0=Dragonaut
TTITLE1=The Druid
TTITLE2=Evil Gypsy - Solomon's Theme
TTITLE3=Some Grass
TTITLE4=Aquarian
TTITLE5=Holy Mountain
TTITLE6=Inside Te Sun
TTITLE7=From Beyond
TTITLE8=Nain's Baptism
TTITLE9=Snowblind [Bonus Track]
TTITLE10=Dragonaut
EXTD=
EXTT0=
EXTT1=
EXTT2=
EXTT3=
EXTT4=
EXTT5=
EXTT6=
EXTT7=
EXTT8=
EXTT9=
EXTT10=
PLAYORDER=
